<svg width="40" height="40" viewBox="0 0 40 40" fill="none" xmlns="http://www.w3.org/2000/svg" xmlns:c2pa="http://c2pa.org/manifest"><metadata><c2pa:manifest>AAAWgmp1bWIAAAAeanVtZGMycGEAEQAQgAAAqgA4m3EDYzJwYQAAABZcanVtYgAAAEdqdW1kYzJtYQARABCAAACqADibcQN1cm46YzJwYTplYjYwNmZkNS1mZGY1LTQ0YjEtODM0Mi0xNzg3YzM0NDU4ZGMAAAADl2p1bWIAAAApanVtZGMyYXMAEQAQgAAAqgA4m3EDYzJwYS5hc3NlcnRpb25zAAAAALxqdW1iAAAARGp1bWRjYm9yABEAEIAAAKoAOJtxE2MycGEuaW5ncmVkaWVudC52MwAAAAAYYzJzaDyGCa4x85zMfMQBuK42drEAAABwY2JvcqNpZGM6Zm9ybWF0bWltYWdlL3N2Zyt4bWxqaW5zdGFuY2VJRHgseG1wOmlpZDoxYzJjYWQ2Mi1jNzBiLTQxMjYtODUzOS1mMmZjYTExZmM3YWZscmVsYXRpb25zaGlwaHBhcmVudE9mAAAB4mp1bWIAAABBanVtZGNib3IAEQAQgAAAqgA4m3ETYzJwYS5hY3Rpb25zLnYyAAAAABhjMnNoy7BJK9m0IDXW014M6PqA+wAAAZljYm9yomdhY3Rpb25zgqJmYWN0aW9ua2MycGEub3BlbmVkanBhcmFtZXRlcnOha2luZ3JlZGllbnRzgaJjdXJseC1zZWxmI2p1bWJmPWMycGEuYXNzZXJ0aW9ucy9jMnBhLmluZ3JlZGllbnQudjNkaGFzaFggQXtLLe5On/4sapenSEZmGTwyDmn03hP5C01Cc6IeePOkZmFjdGlvbngdY29tLmFudGhyb3BpYy5jbGF1ZGUucHJvdmlkZWRqcGFyYW1ldGVyc6F4H2NvbS5hbnRocm9waWMub3JpZ2luLWNvbmZpZGVuY2VndW5rbm93bmtkZXNjcmlwdGlvbnhmQ2xhdWRlIHByb3ZpZGVkIHRoaXMgZmlsZSBhdCB0aGUgcmVxdWVzdCBvZiBhIHVzZXIgYW5kIG1heSBoYXZlIGNyZWF0ZWQgb3IgbW9kaWZpZWQgdGhlIGZpbGUgY29udGVudHMubXNvZnR3YXJlQWdlbnShZG5hbWVmQ2xhdWRlcmFsbEFjdGlvbnNJbmNsdWRlZPUAAADIanVtYgAAAEBqdW1kY2JvcgARABCAAACqADibcRNjMnBhLmhhc2guZGF0YQAAAAAYYzJzaLbtQaIpvPvxDI6g155GO1QAAACAY2JvcqVjYWxnZnNoYTI1NmNwYWRNAAAAAAAAAAAAAAAAAGRoYXNoWCC3V52GYaVpTX3K+2bs/Mc2WzKMQJRi1OlQWfscl3cjimRuYW1lbmp1bWJmIG1hbmlmZXN0amV4Y2x1c2lvbnOBomVzdGFydBieZmxlbmd0aBkeBAAAAj5qdW1iAAAAJ2p1bWRjMmNsABEAEIAAAKoAOJtxA2MycGEuY2xhaW0udjIAAAACD2Nib3KlY2FsZ2ZzaGEyNTZpc2lnbmF0dXJleE1zZWxmI2p1bWJmPS9jMnBhL3VybjpjMnBhOmViNjA2ZmQ1LWZkZjUtNDRiMS04MzQyLTE3ODdjMzQ0NThkYy9jMnBhLnNpZ25hdHVyZWppbnN0YW5jZUlEeCx4bXA6aWlkOjhkMjE4NzQwLTU4NGEtNDVjYy05NmU5LTcxMmQxNjk5NjRkOHJjcmVhdGVkX2Fzc2VydGlvbnODomN1cmx4LXNlbGYjanVtYmY9YzJwYS5hc3NlcnRpb25zL2MycGEuaW5ncmVkaWVudC52M2RoYXNoWCBBe0st7k6f/ixql6dIRmYZPDIOafTeE/kLTUJzoh5486JjdXJseCpzZWxmI2p1bWJmPWMycGEuYXNzZXJ0aW9ucy9jMnBhLmFjdGlvbnMudjJkaGFzaFgg9US8J71LwY6kVE9XY+JfWtZi1XeJBlvRFXpInDOVrxWiY3VybHgpc2VsZiNqdW1iZj1jMnBhLmFzc2VydGlvbnMvYzJwYS5oYXNoLmRhdGFkaGFzaFggfXNuhJXgeFsHqC0xr6TWqxdgV9mIV99nn5/LCAa4hIh0Y2xhaW1fZ2VuZXJhdG9yX2luZm+jZG5hbWVvQW50aHJvcGljIEZpbGVzZ3ZlcnNpb25lMS4wLjBrc3BlY1ZlcnNpb25lMi40LjAAABA4anVtYgAAAChqdW1kYzJjcwARABCAAACqADibcQNjMnBhLnNpZ25hdHVyZQAAABAIY2JvctKEWQISogEmGCFZAgowggIGMIIBjaADAgECAhRA5aAK7sI50L64g/oGQgU9Z1UTADAKBggqhkjOPQQDAzBJMRcwFQYDVQQKEw5BbnRocm9waWMsIFBCQzEuMCwGA1UEAxMlQW50aHJvcGljIENvbnRlbnQgQ3JlZGVudGlhbHMgUm9vdCBDQTAeFw0yNjA4MDcxODQzNTZaFw0yODA4MDYxOTQzNTZaMEQxFzAVBgNVBAoTDkFudGhyb3BpYywgUEJDMSkwJwYDVQQDEyBBbnRocm9waWMgQ2xhdWRlIENvbnRlbnQgU2lnbmluZzBZMBMGByqGSM49AgEGCCqGSM49AwEHA0IABJh6CmvLUBgFFNU0vUKlOVtE6djd17L5SuwX0LemFisBM3dkd/3cyjxFA3Qo5S46fX0/ihY0VZ7mfb9KF703t5OjWDBWMA4GA1UdDwEB/wQEAwIHgDAVBgNVHSUEDjAMBgorBgEEAYPoXgIBMAwGA1UdEwEB/wQCMAAwHwYDVR0jBBgwFoAUzlHiBIFOZFsj+OPEz5o+nMHXXMIwCgYIKoZIzj0EAwMDZwAwZAIwMXMdFJ4BetLLVY7ORuE9noqbbAZOZn/aArXyTwFAZfKrPzxF2vPoJNf1+UCdg1XGAjBwX1zd9WGqYkqmL5SFqw1QySjr1zJfpJM9+1rdDwSPLMOPOjKuiXjoU/pUUeG9RwmhY3BhZFkNngAAAAAAAAAAAAAAAAAAAAAAAAAAAAAAAAAAAAAAAAAAAAAAAAAAAAAAAAAAAAAAAAAAAAAAAAAAAAAAAAAAAAAAAAAAAAAAAAAAAAAAAAAAAAAAAAAAAAAAAAAAAAAAAAAAAAAAAAAAAAAAAAAAAAAAAAAAAAAAAAAAAAAAAAAAAAAAAAAAAAAAAAAAAAAAAAAAAAAAAAAAAAAAAAAAAAAAAAAAAAAAAAAAAAAAAAAAAAAAAAAAAAAAAAAAAAAAAAAAAAAAAAAAAAAAAAAAAAAAAAAAAAAAAAAAAAAAAAAAAAAAAAAAAAAAAAAAAAAAAAAAAAAAAAAAAAAAAAAAAAAAAAAAAAAAAAAAAAAAAAAAAAAAAAAAAAAAAAAAAAAAAAAAAAAAAAAAAAAAAAAAAAAAAAAAAAAAAAAAAAAAAAAAAAAAAAAAAAAAAAAAAAAAAAAAAAAAAAAAAAAAAAAAAAAAAAAAAAAAAAAAAAAAAAAAAAAAAAAAAAAAAAAAAAAAAAAAAAAAAAAAAAAAAAAAAAAAAAAAAAAAAAAAAAAAAAAAAAAAAAAAAAAAAAAAAAAAAAAAAAAAAAAAAAAAAAAAAAAAAAAAAAAAAAAAAAAAAAAAAAAAAAAAAAAAAAAAAAAAAAAAAAAAAAAAAAAAAAAAAAAAAAAAAAAAAAAAAAAAAAAAAAAAAAAAAAAAAAAAAAAAAAAAAAAAAAAAAAAAAAAAAAAAAAAAAAAAAAAAAAAAAAAAAAAAAAAAAAAAAAAAAAAAAAAAAAAAAAAAAAAAAAAAAAAAAAAAAAAAAAAAAAAAAAAAAAAAAAAAAAAAAAAAAAAAAAAAAAAAAAAAAAAAAAAAAAAAAAAAAAAAAAAAAAAAAAAAAAAAAAAAAAAAAAAAAAAAAAAAAAAAAAAAAAAAAAAAAAAAAAAAAAAAAAAAAAAAAAAAAAAAAAAAAAAAAAAAAAAAAAAAAAAAAAAAAAAAAAAAAAAAAAAAAAAAAAAAAAAAAAAAAAAAAAAAAAAAAAAAAAAAAAAAAAAAAAAAAAAAAAAAAAAAAAAAAAAAAAAAAAAAAAAAAAAAAAAAAAAAAAAAAAAAAAAAAAAAAAAAAAAAAAAAAAAAAAAAAAAAAAAAAAAAAAAAAAAAAAAAAAAAAAAAAAAAAAAAAAAAAAAAAAAAAAAAAAAAAAAAAAAAAAAAAAAAAAAAAAAAAAAAAAAAAAAAAAAAAAAAAAAAAAAAAAAAAAAAAAAAAAAAAAAAAAAAAAAAAAAAAAAAAAAAAAAAAAAAAAAAAAAAAAAAAAAAAAAAAAAAAAAAAAAAAAAAAAAAAAAAAAAAAAAAAAAAAAAAAAAAAAAAAAAAAAAAAAAAAAAAAAAAAAAAAAAAAAAAAAAAAAAAAAAAAAAAAAAAAAAAAAAAAAAAAAAAAAAAAAAAAAAAAAAAAAAAAAAAAAAAAAAAAAAAAAAAAAAAAAAAAAAAAAAAAAAAAAAAAAAAAAAAAAAAAAAAAAAAAAAAAAAAAAAAAAAAAAAAAAAAAAAAAAAAAAAAAAAAAAAAAAAAAAAAAAAAAAAAAAAAAAAAAAAAAAAAAAAAAAAAAAAAAAAAAAAAAAAAAAAAAAAAAAAAAAAAAAAAAAAAAAAAAAAAAAAAAAAAAAAAAAAAAAAAAAAAAAAAAAAAAAAAAAAAAAAAAAAAAAAAAAAAAAAAAAAAAAAAAAAAAAAAAAAAAAAAAAAAAAAAAAAAAAAAAAAAAAAAAAAAAAAAAAAAAAAAAAAAAAAAAAAAAAAAAAAAAAAAAAAAAAAAAAAAAAAAAAAAAAAAAAAAAAAAAAAAAAAAAAAAAAAAAAAAAAAAAAAAAAAAAAAAAAAAAAAAAAAAAAAAAAAAAAAAAAAAAAAAAAAAAAAAAAAAAAAAAAAAAAAAAAAAAAAAAAAAAAAAAAAAAAAAAAAAAAAAAAAAAAAAAAAAAAAAAAAAAAAAAAAAAAAAAAAAAAAAAAAAAAAAAAAAAAAAAAAAAAAAAAAAAAAAAAAAAAAAAAAAAAAAAAAAAAAAAAAAAAAAAAAAAAAAAAAAAAAAAAAAAAAAAAAAAAAAAAAAAAAAAAAAAAAAAAAAAAAAAAAAAAAAAAAAAAAAAAAAAAAAAAAAAAAAAAAAAAAAAAAAAAAAAAAAAAAAAAAAAAAAAAAAAAAAAAAAAAAAAAAAAAAAAAAAAAAAAAAAAAAAAAAAAAAAAAAAAAAAAAAAAAAAAAAAAAAAAAAAAAAAAAAAAAAAAAAAAAAAAAAAAAAAAAAAAAAAAAAAAAAAAAAAAAAAAAAAAAAAAAAAAAAAAAAAAAAAAAAAAAAAAAAAAAAAAAAAAAAAAAAAAAAAAAAAAAAAAAAAAAAAAAAAAAAAAAAAAAAAAAAAAAAAAAAAAAAAAAAAAAAAAAAAAAAAAAAAAAAAAAAAAAAAAAAAAAAAAAAAAAAAAAAAAAAAAAAAAAAAAAAAAAAAAAAAAAAAAAAAAAAAAAAAAAAAAAAAAAAAAAAAAAAAAAAAAAAAAAAAAAAAAAAAAAAAAAAAAAAAAAAAAAAAAAAAAAAAAAAAAAAAAAAAAAAAAAAAAAAAAAAAAAAAAAAAAAAAAAAAAAAAAAAAAAAAAAAAAAAAAAAAAAAAAAAAAAAAAAAAAAAAAAAAAAAAAAAAAAAAAAAAAAAAAAAAAAAAAAAAAAAAAAAAAAAAAAAAAAAAAAAAAAAAAAAAAAAAAAAAAAAAAAAAAAAAAAAAAAAAAAAAAAAAAAAAAAAAAAAAAAAAAAAAAAAAAAAAAAAAAAAAAAAAAAAAAAAAAAAAAAAAAAAAAAAAAAAAAAAAAAAAAAAAAAAAAAAAAAAAAAAAAAAAAAAAAAAAAAAAAAAAAAAAAAAAAAAAAAAAAAAAAAAAAAAAAAAAAAAAAAAAAAAAAAAAAAAAAAAAAAAAAAAAAAAAAAAAAAAAAAAAAAAAAAAAAAAAAAAAAAAAAAAAAAAAAAAAAAAAAAAAAAAAAAAAAAAAAAAAAAAAAAAAAAAAAAAAAAAAAAAAAAAAAAAAAAAAAAAAAAAAAAAAAAAAAAAAAAAAAAAAAAAAAAAAAAAAAAAAAAAAAAAAAAAAAAAAAAAAAAAAAAAAAAAAAAAAAAAAAAAAAAAAAAAAAAAAAAAAAAAAAAAAAAAAAAAAAAAAAAAAAAAAAAAAAAAAAAAAAAAAAAAAAAAAAAAAAAAAAAAAAAAAAAAAAAAAAAAAAAAAAAAAAAAAAAAAAAAAAAAAAAAAAAAAAAAAAAAAAAAAAAAAAAAAAAAAAAAAAAAAAAAAAAAAAAAAAAAAAAAAAAAAAAAAAAAAAAAAAAAAAAAAAAAAAAAAAAAAAAAAAAAAAAAAAAAAAAAAAAAAAAAAAAAAAAAAAAAAAAAAAAAAAAAAAAAAAAAAAAAAAAAAAAAAAAAAAAAAAAAAAAAAAAAAAAAAAAAAAAAAAAAAAAAAAAAAAAAAAAAAAAAAAAAAAAAAAAAAAAAAAAAAAAAAAAAAAAAAAAAAAAAAAAAAAAAAAAAAAAAAAAAAAAAAAAAAAAAAAAAAAAAAAAAAAAAAAAAAAAAAAAAAAAAAAAAAAAAAAAAAAAAAAAAAAAAAAAAAAAAAAAAAAAAAAAAAAAAAAAAAAAAAAAAAAAAAAAAAAAAAAAAAAAAAAAAAAAAAAAAAAAAAAAAAAAAAAAAAAAAAAAAAAAAAAAAAAAAAAAAAAAAAAAAAAAAAAAAAAAAAAAAAAAAAAAAAAAAAAAAAAAAAAAAAAAAAAAAAAAAAAAAAAAAAAAAAAAAAAAAAAAAAAAAAAAAAAAAAAAAAAAAAAAAAAAAAAAAAAAAAAAAAAAAAAAAAAAAAAAAAAAAAAAAAAAAAAAAAAAAAAAAAAAAAAAAAAAAAAAAAAAAAAAAAAAAAAAAAAAAAAAAAAAAAAAAAAAAAAAAAAAAAAAAAAAAAAAAAAAAAAAAAAAAAAAAAAAAAAAAAAAAAAAAAAAAAAAAAAAAAAAAAAAAAAAAAAAAAAAAAAAAAAAAAAAAAAAAAAAAAAAAAAAAAAAAAAAAAAAAAAAAAAAAAAAAAAAAAAAAAAAAAAAAAAAAAAAAAAAAAAAAAAAAAAAAAAAAAAAAAAAAAAAAAAAAAAAAAAAAAAAAAAAAAAAAAAAAAAAAAAAAAAAAAAAAAAAAAAAAAAAAAAAAAAAAAAAAAAAAAAAAAAAAAAAAAAAAAAAAAAAAAAAAAAAAAAAAAAAAAAAAAAAAAAAAAAAAAAAAAAAAAAAAAAAAAAAAAAAAAAAAAAAAAAAAAAAAAAAAAAAAAAAAAAAAAAAAAAAAAAAAAAAAAAAAAAAAAAAAAAAAAAAAAAAAAAAAAAAAAAAAAAAAAAAAAAAAAAAAAAAAAAAAAAAAAAAAAAAAAAAAAAAAAAAAAAAAAAAAAAAAAAAAAAAAAAAAAAAAAAAAAAAAAAAAAAAAAAAAAAAAAAAAAAAAAAAAAAAAAAAAAAAAAAAAAAAAAAAAAAAAAAAAAAAAAAAAAAAAAAAAAAAAAAAAAAAAAAAAAAAAAAAAAAAAAAAAAAAAAAAAAAAAAAAAAAAAAAAAAAAAAAAAAAAAAAAAAAAAAAAAAAAAAAAAAAAAAAAAAAAAAAAAAAAAAAAAAAAAAAAAAAAAAAAAAAAAAAAAAAAAAAAAAAAAAAPZYQNQvaAbWIY2c9cqj8wnI03Jo1UEhWKmKfb3Qk4YAS2WiGhWpZ1mUeXxdVIAgWE2G8zpK9G4gEqH+nBobF09nG1s=</c2pa:manifest></metadata>
<path fill-rule="evenodd" clip-rule="evenodd" d="M21.8182 23.6364H23.6364V25.4545H21.8182V23.6364ZM23.6364 25.4545H25.4545V27.2727H23.6364V25.4545ZM23.6364 27.2727H25.4545V29.0909H23.6364V27.2727ZM27.2727 27.2727H29.0909V29.0909H27.2727V27.2727ZM27.2727 29.0909H29.0909V30.9091H27.2727V29.0909ZM21.8182 27.2727H23.6364V29.0909H21.8182V27.2727ZM25.4545 27.2727H27.2727V29.0909H25.4545V27.2727ZM25.4545 29.0909H27.2727V30.9091H25.4545V29.0909ZM30.9091 27.2727H32.7273V29.0909H30.9091V27.2727ZM30.9091 25.4545H32.7273V27.2727H30.9091V25.4545ZM32.7273 23.6364H34.5455V25.4545H32.7273V23.6364ZM29.0909 27.2727H30.9091V29.0909H29.0909V27.2727ZM29.0909 29.0909H30.9091V30.9091H29.0909V29.0909ZM27.2727 30.9091H29.0909V32.7273H27.2727V30.9091ZM25.4545 30.9091H27.2727V32.7273H25.4545V30.9091ZM29.0909 30.9091H30.9091V32.7273H29.0909V30.9091ZM30.9091 30.9091H32.7273V32.7273H30.9091V30.9091ZM27.2727 32.7273H29.0909V34.5455H27.2727V32.7273ZM23.6364 32.7273H25.4545V34.5455H23.6364V32.7273ZM25.4545 32.7273H27.2727V34.5455H25.4545V32.7273ZM21.8182 32.7273H23.6364V34.5455H21.8182V32.7273ZM21.8182 34.5455H23.6364V36.3636H21.8182V34.5455ZM23.6364 36.3636H25.4545V38.1818H23.6364V36.3636ZM25.4545 36.3636H27.2727V38.1818H25.4545V36.3636ZM29.0909 36.3636H30.9091V38.1818H29.0909V36.3636ZM30.9091 36.3636H32.7273V38.1818H30.9091V36.3636ZM29.0909 32.7273H30.9091V34.5455H29.0909V32.7273ZM30.9091 32.7273H32.7273V34.5455H30.9091V32.7273ZM32.7273 30.9091H34.5455V32.7273H32.7273V30.9091ZM32.7273 29.0909H34.5455V30.9091H32.7273V29.0909ZM32.7273 34.5455H34.5455V36.3636H32.7273V34.5455ZM32.7273 32.7273H34.5455V34.5455H32.7273V32.7273ZM34.5455 30.9091H36.3636V32.7273H34.5455V30.9091ZM34.5455 29.0909H36.3636V30.9091H34.5455V29.0909ZM36.3636 34.5455H38.1818V36.3636H36.3636V34.5455ZM36.3636 30.9091H38.1818V32.7273H36.3636V30.9091ZM36.3636 32.7273H38.1818V34.5455H36.3636V32.7273ZM32.7273 27.2727H34.5455V29.0909H32.7273V27.2727ZM21.8182 29.0909H23.6364V30.9091H21.8182V29.0909ZM20 29.0909H21.8182V30.9091H20V29.0909ZM20 30.9091H21.8182V32.7273H20V30.9091ZM23.6364 30.9091H25.4545V32.7273H23.6364V30.9091ZM18.1818 30.9091H20V32.7273H18.1818V30.9091ZM21.8182 30.9091H23.6364V32.7273H21.8182V30.9091ZM18.1818 32.7273H20V34.5455H18.1818V32.7273ZM18.1818 34.5455H20V36.3636H18.1818V34.5455ZM18.1818 0H20V1.81818H18.1818V0ZM20 1.81818H21.8182V3.63636H20V1.81818ZM18.1818 5.45455H20V7.27273H18.1818V5.45455ZM20 7.27273H21.8182V9.09091H20V7.27273ZM18.1818 9.09091H20V10.9091H18.1818V9.09091ZM20 9.09091H21.8182V10.9091H20V9.09091ZM20 10.9091H21.8182V12.7273H20V10.9091ZM20 12.7273H21.8182V14.5455H20V12.7273ZM18.1818 14.5455H20V16.3636H18.1818V14.5455ZM20 14.5455H21.8182V16.3636H20V14.5455ZM18.1818 16.3636H20V18.1818H18.1818V16.3636ZM0 18.1818H1.81818V20H0V18.1818ZM1.81818 20H3.63636V21.8182H1.81818V20ZM5.45455 18.1818H7.27273V20H5.45455V18.1818ZM5.45455 20H7.27273V21.8182H5.45455V20ZM7.27273 18.1818H9.09091V20H7.27273V18.1818ZM9.09091 20H10.9091V21.8182H9.09091V20ZM10.9091 18.1818H12.7273V20H10.9091V18.1818ZM12.7273 20H14.5455V21.8182H12.7273V20ZM12.7273 18.1818H14.5455V20H12.7273V18.1818ZM14.5455 18.1818H16.3636V20H14.5455V18.1818ZM16.3636 18.1818H18.1818V20H16.3636V18.1818ZM18.1818 20H20V21.8182H18.1818V20ZM21.8182 20H23.6364V21.8182H21.8182V20ZM23.6364 18.1818H25.4545V20H23.6364V18.1818ZM25.4545 18.1818H27.2727V20H25.4545V18.1818ZM27.2727 18.1818H29.0909V20H27.2727V18.1818ZM25.4545 21.8182H27.2727V23.6364H25.4545V21.8182ZM21.8182 38.1818H23.6364V40H21.8182V38.1818ZM20 38.1818H21.8182V40H20V38.1818ZM20 21.8182H21.8182V23.6364H20V21.8182ZM18.1818 21.8182H20V23.6364H18.1818V21.8182ZM18.1818 23.6364H20V25.4545H18.1818V23.6364ZM18.1818 25.4545H20V27.2727H18.1818V25.4545ZM38.1818 23.6364H40V25.4545H38.1818V23.6364ZM36.3636 25.4545H38.1818V27.2727H36.3636V25.4545ZM38.1818 29.0909H40V30.9091H38.1818V29.0909ZM29.0909 21.8182H30.9091V23.6364H29.0909V21.8182ZM30.9091 20H32.7273V21.8182H30.9091V20ZM38.1818 20H40V21.8182H38.1818V20ZM38.1818 21.8182H40V23.6364H38.1818V21.8182ZM36.3636 21.8182H38.1818V23.6364H36.3636V21.8182ZM38.1818 36.3636H40V38.1818H38.1818V36.3636ZM36.3636 38.1818H38.1818V40H36.3636V38.1818ZM32.7273 38.1818H34.5455V40H32.7273V38.1818ZM38.1818 38.1818H40V40H38.1818V38.1818Z" fill="white"></path>
<path d="M16.3636 23.6364V40H0V23.6364H16.3636ZM3.63636 36.3636H12.7273V27.2727H3.63636V36.3636ZM10.9091 29.0909V34.5455H5.45455V29.0909H10.9091ZM16.3636 0V16.3636H0V0H16.3636ZM40 0V16.3636H23.6364V0H40ZM27.2727 12.7273H36.3636V3.63636H27.2727V12.7273ZM3.63636 12.7273H12.7273V3.63636H3.63636V12.7273ZM10.9091 5.45455V10.9091H5.45455V5.45455H10.9091ZM34.5455 5.45455V10.9091H29.0909V5.45455H34.5455Z" fill="white"></path>
</svg>